<svg width="0" height="0" class="hidden">
  <symbol fill="none" xmlns="http://www.w3.org/2000/svg" viewBox="0 0 35 35" id="works-svg-3">
    <path d="M17.5 0C7.8506 0 0 7.85144 0 17.5C0 27.1637 7.8363 35 17.5 35C27.1494 35 35 27.1494 35 17.5C35 7.83546 27.1645 0 17.5 0ZM17.5 26.3341C15.4025 26.3341 13.3909 25.5009 11.9077 24.0177C10.4246 22.5346 9.59135 20.523 9.59135 18.4255C9.59135 16.328 10.4246 14.3164 11.9077 12.8332C13.3909 11.3501 15.4025 10.5168 17.5 10.5168H17.8542L16.6671 9.33053C16.4462 9.10962 16.3221 8.81001 16.3221 8.4976C16.3221 8.18519 16.4462 7.88557 16.6671 7.66466C16.888 7.44376 17.1876 7.31965 17.5 7.31965C17.8124 7.31965 18.112 7.44376 18.3329 7.66466L21.6983 11.03C21.8077 11.1394 21.8945 11.2693 21.9537 11.4122C22.0129 11.5551 22.0434 11.7083 22.0434 11.863C22.0434 12.0177 22.0129 12.1709 21.9537 12.3138C21.8945 12.4567 21.8077 12.5865 21.6983 12.6959L18.3329 16.0613C18.112 16.2822 17.8124 16.4063 17.5 16.4063C17.1876 16.4063 16.888 16.2822 16.6671 16.0613C16.4462 15.8404 16.3221 15.5408 16.3221 15.2284C16.3221 14.916 16.4462 14.6163 16.6671 14.3954L18.1815 12.881C17.9813 12.8726 17.7524 12.8726 17.5 12.8726C16.4017 12.8726 15.3282 13.1983 14.415 13.8084C13.5018 14.4186 12.7901 15.2858 12.3698 16.3005C11.9495 17.3151 11.8396 18.4316 12.0538 19.5088C12.2681 20.5859 12.7969 21.5754 13.5735 22.352C14.3501 23.1285 15.3395 23.6574 16.4167 23.8717C17.4938 24.0859 18.6103 23.976 19.625 23.5557C20.6397 23.1354 21.5069 22.4237 22.1171 21.5105C22.7272 20.5973 23.0529 19.5237 23.0529 18.4255C23.0529 18.1131 23.177 17.8135 23.3979 17.5926C23.6188 17.3717 23.9184 17.2476 24.2308 17.2476C24.5432 17.2476 24.8428 17.3717 25.0637 17.5926C25.2846 17.8135 25.4087 18.1131 25.4087 18.4255C25.4062 20.5222 24.5722 22.5324 23.0896 24.015C21.6069 25.4977 19.5968 26.3317 17.5 26.3341Z" fill="white"></path>
  </symbol>
  <symbol fill="none" xmlns="http://www.w3.org/2000/svg" viewBox="0 0 35 35" id="works-svg-1">
    <path d="M33.0283 0H23.1691C22.0801 0 21.1973 0.88282 21.1973 1.97183V11.831C21.1973 12.92 22.0801 13.8028 23.1691 13.8028H33.0283C34.1173 13.8028 35.0001 12.92 35.0001 11.831V1.97183C35.0001 0.88282 34.1173 0 33.0283 0Z" fill="white"></path>
    <path d="M11.831 21.1968H1.97183C0.88282 21.1968 0 22.0796 0 23.1686V33.0278C0 34.1168 0.88282 34.9996 1.97183 34.9996H11.831C12.92 34.9996 13.8028 34.1168 13.8028 33.0278V23.1686C13.8028 22.0796 12.92 21.1968 11.831 21.1968Z" fill="white"></path>
    <path d="M6.90142 13.8028C7.80773 13.8028 8.70516 13.6243 9.54248 13.2775C10.3798 12.9307 11.1406 12.4223 11.7815 11.7815C12.4223 11.1406 12.9307 10.3798 13.2775 9.54248C13.6243 8.70516 13.8028 7.80773 13.8028 6.90142C13.8028 5.99511 13.6243 5.09768 13.2775 4.26036C12.9307 3.42304 12.4223 2.66224 11.7815 2.02138C11.1406 1.38052 10.3798 0.872168 9.54248 0.525339C8.70516 0.17851 7.80773 -1.9099e-08 6.90142 0C5.07105 3.85722e-08 3.31565 0.727112 2.02138 2.02138C0.727112 3.31565 0 5.07105 0 6.90142C0 8.73179 0.727112 10.4872 2.02138 11.7815C3.31565 13.0757 5.07105 13.8028 6.90142 13.8028Z" fill="white"></path>
    <path d="M35.0001 33.0283L28.0987 21.1973L21.1973 33.0283C21.1973 34.1173 22.0801 35.0001 23.1691 35.0001H33.0283C34.1173 35.0001 35.0001 34.1173 35.0001 33.0283Z" fill="white"></path>
  </symbol>
  <symbol fill="none" xmlns="http://www.w3.org/2000/svg" viewBox="0 0 44 35" id="works-svg-2">
    <path fill-rule="evenodd" clip-rule="evenodd" d="M28.4375 0C31.2944 0 33.7269 1.82656 34.6281 4.375H15.3125C12.4117 4.375 9.6297 5.52734 7.57852 7.57852C5.52734 9.6297 4.375 12.4117 4.375 15.3125V25.8781C3.09515 25.4253 1.98717 24.5868 1.20365 23.4781C0.420129 22.3694 -0.000391405 21.0451 2.73362e-07 19.6875V6.5625C2.73362e-07 4.82202 0.691405 3.15282 1.92211 1.92211C3.15282 0.691404 4.82202 0 6.5625 0H28.4375ZM37.1875 8.75H15.3125C13.572 8.75 11.9028 9.4414 10.6721 10.6721C9.4414 11.9028 8.75 13.572 8.75 15.3125V28.4375C8.75 30.178 9.4414 31.8472 10.6721 33.0779C11.9028 34.3086 13.572 35 15.3125 35H37.1875C38.928 35 40.5972 34.3086 41.8279 33.0779C43.0586 31.8472 43.75 30.178 43.75 28.4375V15.3125C43.75 13.572 43.0586 11.9028 41.8279 10.6721C40.5972 9.4414 38.928 8.75 37.1875 8.75ZM30.625 21.875C30.625 23.0353 30.1641 24.1481 29.3436 24.9686C28.5231 25.7891 27.4103 26.25 26.25 26.25C25.0897 26.25 23.9769 25.7891 23.1564 24.9686C22.3359 24.1481 21.875 23.0353 21.875 21.875C21.875 20.7147 22.3359 19.6019 23.1564 18.7814C23.9769 17.9609 25.0897 17.5 26.25 17.5C27.4103 17.5 28.5231 17.9609 29.3436 18.7814C30.1641 19.6019 30.625 20.7147 30.625 21.875Z" fill="white"></path>
  </symbol>
    <symbol fill="none" xmlns="http://www.w3.org/2000/svg" viewBox="0 0 107 89" id="advantages-union">
    <g filter="url(#filter0_di_39_534)">
      <path fill-rule="evenodd" clip-rule="evenodd" d="M61.7806 6C59.5892 6 57.8128 7.78311 57.8128 9.98269C57.8128 12.1823 59.5892 13.9654 61.7806 13.9654H69.4849L54.8276 29.2326L47.5072 21.8849C46.7557 21.1306 45.7341 20.7104 44.6713 20.7185C43.6085 20.7266 42.5934 21.1624 41.8534 21.9281L25.1193 39.2442C23.5935 40.823 23.6318 43.3444 25.2047 44.8759C26.7777 46.4074 29.2897 46.369 30.8155 44.7901L44.7446 30.3767L52.0743 37.7338C52.8274 38.4897 53.8517 38.91 54.9167 38.9001C55.9818 38.8902 56.9981 38.451 57.7372 37.6811L75.0644 19.6329V26.9524C75.0644 29.152 76.8409 30.9351 79.0323 30.9351C81.2237 30.9351 83.0002 29.152 83.0002 26.9524V9.98269C83.0002 7.78311 81.2237 6 79.0323 6H61.7806Z" fill="url(#paint0_linear_39_534)"></path>
    </g>
    <defs>
      <filter id="filter0_di_39_534" x="0.161987" y="-6.83559" width="106.676" height="95.0097" filterUnits="userSpaceOnUse" color-interpolation-filters="sRGB">
        <feFlood flood-opacity="0" result="BackgroundImageFix"></feFlood>
        <feColorMatrix in="SourceAlpha" type="matrix" values="0 0 0 0 0 0 0 0 0 0 0 0 0 0 0 0 0 0 127 0" result="hardAlpha"></feColorMatrix>
        <feOffset dy="18.3366"></feOffset>
        <feGaussianBlur stdDeviation="11.9188"></feGaussianBlur>
        <feColorMatrix type="matrix" values="0 0 0 0 0.679167 0 0 0 0 0.104705 0 0 0 0 0.104705 0 0 0 0.37 0"></feColorMatrix>
        <feBlend mode="normal" in2="BackgroundImageFix" result="effect1_dropShadow_39_534"></feBlend>
        <feBlend mode="normal" in="SourceGraphic" in2="effect1_dropShadow_39_534" result="shape"></feBlend>
        <feColorMatrix in="SourceAlpha" type="matrix" values="0 0 0 0 0 0 0 0 0 0 0 0 0 0 0 0 0 0 127 0" result="hardAlpha"></feColorMatrix>
        <feOffset dy="-18.3366"></feOffset>
        <feGaussianBlur stdDeviation="6.4178"></feGaussianBlur>
        <feComposite in2="hardAlpha" operator="arithmetic" k2="-1" k3="1"></feComposite>
        <feColorMatrix type="matrix" values="0 0 0 0 0 0 0 0 0 0 0 0 0 0 0 0 0 0 0.2 0"></feColorMatrix>
        <feBlend mode="normal" in2="shape" result="effect2_innerShadow_39_534"></feBlend>
      </filter>
      <linearGradient id="paint0_linear_39_534" x1="53.4999" y1="6" x2="53.4999" y2="45.9999" gradientUnits="userSpaceOnUse">
        <stop stop-color="#E75C5C"></stop>
        <stop offset="1" stop-color="#E13600"></stop>
      </linearGradient>
    </defs>
  </symbol>
  <symbol fill="none" xmlns="http://www.w3.org/2000/svg" viewBox="0 0 159 158" id="advantages-star">
    <g filter="url(#filter0_dii_39_533)">
      <path d="M76.8551 16.504C77.9522 14.2628 81.1468 14.2628 82.244 16.504L86.75 25.7086C87.1847 26.5966 88.029 27.2134 89.007 27.3575L99.1293 28.8493C101.581 29.2107 102.562 32.221 100.794 33.9577L93.4428 41.1772C92.7422 41.8653 92.4227 42.8526 92.5873 43.8207L94.3173 53.991C94.7348 56.4453 92.1538 58.3108 89.9544 57.1445L80.9549 52.3725C80.076 51.9064 79.0231 51.9064 78.1441 52.3725L69.1447 57.1445C66.9452 58.3108 64.3643 56.4453 64.7817 53.991L66.5117 43.8207C66.6763 42.8526 66.3568 41.8653 65.6562 41.1772L58.305 33.9577C56.5367 32.221 57.5177 29.2107 59.9697 28.8493L70.092 27.3575C71.0701 27.2134 71.9143 26.5966 72.349 25.7086L76.8551 16.504Z" fill="url(#paint0_linear_39_533)"></path>
    </g>
    <defs>
      <filter id="filter0_dii_39_533" x="0.200867" y="0.522507" width="158.697" height="157.084" filterUnits="userSpaceOnUse" color-interpolation-filters="sRGB">
        <feFlood flood-opacity="0" result="BackgroundImageFix"></feFlood>
        <feColorMatrix in="SourceAlpha" type="matrix" values="0 0 0 0 0 0 0 0 0 0 0 0 0 0 0 0 0 0 127 0" result="hardAlpha"></feColorMatrix>
        <feOffset dy="42.9022"></feOffset>
        <feGaussianBlur stdDeviation="28.6015"></feGaussianBlur>
        <feComposite in2="hardAlpha" operator="out"></feComposite>
        <feColorMatrix type="matrix" values="0 0 0 0 0.441638 0 0 0 0 0.245593 0 0 0 0 0.0646293 0 0 0 0.25 0"></feColorMatrix>
        <feBlend mode="normal" in2="BackgroundImageFix" result="effect1_dropShadow_39_533"></feBlend>
        <feBlend mode="normal" in="SourceGraphic" in2="effect1_dropShadow_39_533" result="shape"></feBlend>
        <feColorMatrix in="SourceAlpha" type="matrix" values="0 0 0 0 0 0 0 0 0 0 0 0 0 0 0 0 0 0 127 0" result="hardAlpha"></feColorMatrix>
        <feOffset dy="-14.3007"></feOffset>
        <feGaussianBlur stdDeviation="14.3007"></feGaussianBlur>
        <feComposite in2="hardAlpha" operator="arithmetic" k2="-1" k3="1"></feComposite>
        <feColorMatrix type="matrix" values="0 0 0 0 0.549971 0 0 0 0 0.304646 0 0 0 0 0.0781912 0 0 0 0.57 0"></feColorMatrix>
        <feBlend mode="normal" in2="shape" result="effect2_innerShadow_39_533"></feBlend>
        <feColorMatrix in="SourceAlpha" type="matrix" values="0 0 0 0 0 0 0 0 0 0 0 0 0 0 0 0 0 0 127 0" result="hardAlpha"></feColorMatrix>
        <feOffset dy="-14.3007"></feOffset>
        <feGaussianBlur stdDeviation="7.15037"></feGaussianBlur>
        <feComposite in2="hardAlpha" operator="arithmetic" k2="-1" k3="1"></feComposite>
        <feColorMatrix type="matrix" values="0 0 0 0 1 0 0 0 0 0.981301 0 0 0 0 0.813007 0 0 0 0.72 0"></feColorMatrix>
        <feBlend mode="normal" in2="effect2_innerShadow_39_533" result="effect3_innerShadow_39_533"></feBlend>
      </filter>
      <linearGradient id="paint0_linear_39_533" x1="69.3659" y1="16.458" x2="80.6576" y2="56.6752" gradientUnits="userSpaceOnUse">
        <stop offset="0.0001" stop-color="#FFED8C"></stop>
        <stop offset="1" stop-color="#F4B335"></stop>
      </linearGradient>
    </defs>
  </symbol>
  
</svg>