<svg width="0" height="0" class="hidden">
  <symbol fill="none" xmlns="http://www.w3.org/2000/svg" viewBox="0 0 35 35" id="works-svg-3">
    <path d="M17.5 0C7.8506 0 0 7.85144 0 17.5C0 27.1637 7.8363 35 17.5 35C27.1494 35 35 27.1494 35 17.5C35 7.83546 27.1645 0 17.5 0ZM17.5 26.3341C15.4025 26.3341 13.3909 25.5009 11.9077 24.0177C10.4246 22.5346 9.59135 20.523 9.59135 18.4255C9.59135 16.328 10.4246 14.3164 11.9077 12.8332C13.3909 11.3501 15.4025 10.5168 17.5 10.5168H17.8542L16.6671 9.33053C16.4462 9.10962 16.3221 8.81001 16.3221 8.4976C16.3221 8.18519 16.4462 7.88557 16.6671 7.66466C16.888 7.44376 17.1876 7.31965 17.5 7.31965C17.8124 7.31965 18.112 7.44376 18.3329 7.66466L21.6983 11.03C21.8077 11.1394 21.8945 11.2693 21.9537 11.4122C22.0129 11.5551 22.0434 11.7083 22.0434 11.863C22.0434 12.0177 22.0129 12.1709 21.9537 12.3138C21.8945 12.4567 21.8077 12.5865 21.6983 12.6959L18.3329 16.0613C18.112 16.2822 17.8124 16.4063 17.5 16.4063C17.1876 16.4063 16.888 16.2822 16.6671 16.0613C16.4462 15.8404 16.3221 15.5408 16.3221 15.2284C16.3221 14.916 16.4462 14.6163 16.6671 14.3954L18.1815 12.881C17.9813 12.8726 17.7524 12.8726 17.5 12.8726C16.4017 12.8726 15.3282 13.1983 14.415 13.8084C13.5018 14.4186 12.7901 15.2858 12.3698 16.3005C11.9495 17.3151 11.8396 18.4316 12.0538 19.5088C12.2681 20.5859 12.7969 21.5754 13.5735 22.352C14.3501 23.1285 15.3395 23.6574 16.4167 23.8717C17.4938 24.0859 18.6103 23.976 19.625 23.5557C20.6397 23.1354 21.5069 22.4237 22.1171 21.5105C22.7272 20.5973 23.0529 19.5237 23.0529 18.4255C23.0529 18.1131 23.177 17.8135 23.3979 17.5926C23.6188 17.3717 23.9184 17.2476 24.2308 17.2476C24.5432 17.2476 24.8428 17.3717 25.0637 17.5926C25.2846 17.8135 25.4087 18.1131 25.4087 18.4255C25.4062 20.5222 24.5722 22.5324 23.0896 24.015C21.6069 25.4977 19.5968 26.3317 17.5 26.3341Z" fill="white"></path>
  </symbol>
  <symbol fill="none" xmlns="http://www.w3.org/2000/svg" viewBox="0 0 35 35" id="works-svg-1">
    <path d="M33.0283 0H23.1691C22.0801 0 21.1973 0.88282 21.1973 1.97183V11.831C21.1973 12.92 22.0801 13.8028 23.1691 13.8028H33.0283C34.1173 13.8028 35.0001 12.92 35.0001 11.831V1.97183C35.0001 0.88282 34.1173 0 33.0283 0Z" fill="white"></path>
    <path d="M11.831 21.1968H1.97183C0.88282 21.1968 0 22.0796 0 23.1686V33.0278C0 34.1168 0.88282 34.9996 1.97183 34.9996H11.831C12.92 34.9996 13.8028 34.1168 13.8028 33.0278V23.1686C13.8028 22.0796 12.92 21.1968 11.831 21.1968Z" fill="white"></path>
    <path d="M6.90142 13.8028C7.80773 13.8028 8.70516 13.6243 9.54248 13.2775C10.3798 12.9307 11.1406 12.4223 11.7815 11.7815C12.4223 11.1406 12.9307 10.3798 13.2775 9.54248C13.6243 8.70516 13.8028 7.80773 13.8028 6.90142C13.8028 5.99511 13.6243 5.09768 13.2775 4.26036C12.9307 3.42304 12.4223 2.66224 11.7815 2.02138C11.1406 1.38052 10.3798 0.872168 9.54248 0.525339C8.70516 0.17851 7.80773 -1.9099e-08 6.90142 0C5.07105 3.85722e-08 3.31565 0.727112 2.02138 2.02138C0.727112 3.31565 0 5.07105 0 6.90142C0 8.73179 0.727112 10.4872 2.02138 11.7815C3.31565 13.0757 5.07105 13.8028 6.90142 13.8028Z" fill="white"></path>
    <path d="M35.0001 33.0283L28.0987 21.1973L21.1973 33.0283C21.1973 34.1173 22.0801 35.0001 23.1691 35.0001H33.0283C34.1173 35.0001 35.0001 34.1173 35.0001 33.0283Z" fill="white"></path>
  </symbol>
  <symbol fill="none" xmlns="http://www.w3.org/2000/svg" viewBox="0 0 44 35" id="works-svg-2">
    <path fill-rule="evenodd" clip-rule="evenodd" d="M28.4375 0C31.2944 0 33.7269 1.82656 34.6281 4.375H15.3125C12.4117 4.375 9.6297 5.52734 7.57852 7.57852C5.52734 9.6297 4.375 12.4117 4.375 15.3125V25.8781C3.09515 25.4253 1.98717 24.5868 1.20365 23.4781C0.420129 22.3694 -0.000391405 21.0451 2.73362e-07 19.6875V6.5625C2.73362e-07 4.82202 0.691405 3.15282 1.92211 1.92211C3.15282 0.691404 4.82202 0 6.5625 0H28.4375ZM37.1875 8.75H15.3125C13.572 8.75 11.9028 9.4414 10.6721 10.6721C9.4414 11.9028 8.75 13.572 8.75 15.3125V28.4375C8.75 30.178 9.4414 31.8472 10.6721 33.0779C11.9028 34.3086 13.572 35 15.3125 35H37.1875C38.928 35 40.5972 34.3086 41.8279 33.0779C43.0586 31.8472 43.75 30.178 43.75 28.4375V15.3125C43.75 13.572 43.0586 11.9028 41.8279 10.6721C40.5972 9.4414 38.928 8.75 37.1875 8.75ZM30.625 21.875C30.625 23.0353 30.1641 24.1481 29.3436 24.9686C28.5231 25.7891 27.4103 26.25 26.25 26.25C25.0897 26.25 23.9769 25.7891 23.1564 24.9686C22.3359 24.1481 21.875 23.0353 21.875 21.875C21.875 20.7147 22.3359 19.6019 23.1564 18.7814C23.9769 17.9609 25.0897 17.5 26.25 17.5C27.4103 17.5 28.5231 17.9609 29.3436 18.7814C30.1641 19.6019 30.625 20.7147 30.625 21.875Z" fill="white"></path>
  </symbol>


 <symbol fill="none" xmlns="http://www.w3.org/2000/svg" viewBox="0 0 48 48" id="social-m">
    <path d="M24 0C10.7464 0 0 10.7464 0 24C0 37.2536 10.7464 48 24 48C37.2536 48 48 37.2536 48 24C48 10.7464 37.2536 0 24 0ZM37.7143 13.5911L35.5286 15.6857C35.3357 15.8304 35.2446 16.0661 35.2821 16.2964V31.7089C35.2446 31.9446 35.3357 32.1804 35.5286 32.3196L37.6714 34.4143V34.8804H26.9143V34.4357L29.1268 32.2875C29.3464 32.0679 29.3464 32.0036 29.3464 31.6768V19.2054L23.1857 34.8268H22.3554L15.1875 19.2054V29.6786C15.1232 30.1179 15.2786 30.5625 15.5893 30.8786L18.4714 34.3661V34.8321H10.2857V34.3661L13.1679 30.8786C13.3197 30.7217 13.4327 30.5315 13.4978 30.3231C13.563 30.1147 13.5784 29.894 13.5429 29.6786V17.5714C13.5804 17.2339 13.4518 16.9071 13.1946 16.6768L10.6339 13.5911V13.125H18.5893L24.7286 26.5982L30.1339 13.1357H37.7143V13.5911Z" fill="white"></path>
  </symbol>
  <symbol fill="none" xmlns="http://www.w3.org/2000/svg" viewBox="0 0 48 48" id="social-robot">
    <path fill-rule="evenodd" clip-rule="evenodd" d="M48 24C48 37.254 37.254 48 24 48C10.746 48 0 37.254 0 24C0 10.746 10.746 0 24 0C37.254 0 48 10.746 48 24ZM39.376 22.116C39.764 22.67 39.984 23.324 40.008 24C40.0185 24.6613 39.8414 25.3121 39.4974 25.877C39.1534 26.4419 38.6564 26.8978 38.064 27.192C38.092 27.544 38.092 27.896 38.064 28.248C38.064 33.624 31.8 37.992 24.072 37.992C16.344 37.992 10.08 33.624 10.08 28.248C10.053 27.8965 10.053 27.5435 10.08 27.192C9.62234 26.9778 9.2165 26.667 8.89038 26.281C8.56425 25.895 8.32557 25.443 8.19075 24.956C8.05592 24.469 8.02815 23.9585 8.10934 23.4598C8.19053 22.961 8.37875 22.4858 8.66107 22.0667C8.94339 21.6476 9.31311 21.2946 9.74482 21.032C10.1765 20.7693 10.66 20.6033 11.162 20.5453C11.6639 20.4872 12.1725 20.5386 12.6528 20.6958C13.133 20.853 13.5735 21.1124 13.944 21.456C16.7095 19.5805 19.9629 18.5544 23.304 18.504L25.08 10.176C25.0999 10.0796 25.1388 9.98809 25.1944 9.90682C25.25 9.82555 25.3211 9.75611 25.4037 9.70253C25.4863 9.64895 25.5787 9.6123 25.6756 9.5947C25.7724 9.5771 25.8718 9.5789 25.968 9.6L31.848 10.776C32.1352 10.2826 32.5887 9.9078 33.1274 9.71875C33.666 9.52969 34.2543 9.5388 34.7868 9.74445C35.3193 9.95009 35.7611 10.3388 36.0329 10.8408C36.3046 11.3428 36.3885 11.9252 36.2695 12.4835C36.1505 13.0418 35.8365 13.5394 35.3837 13.887C34.9309 14.2346 34.369 14.4095 33.7989 14.3801C33.2288 14.3508 32.6879 14.1192 32.2731 13.727C31.8584 13.3348 31.5971 12.8076 31.536 12.24L26.4 11.16L24.84 18.648C28.1405 18.7188 31.3498 19.7441 34.08 21.6C34.4445 21.2496 34.8805 20.9822 35.3581 20.8163C35.8357 20.6504 36.3436 20.5899 36.8468 20.639C37.35 20.688 37.8366 20.8454 38.2732 21.1004C38.7098 21.3553 39.086 21.7018 39.376 22.116ZM16.412 25.066C16.2368 25.3281 16.115 25.6222 16.0534 25.9314C15.9919 26.2406 15.9919 26.5589 16.0533 26.8681C16.1775 27.4926 16.5446 28.0422 17.074 28.396C17.6034 28.7498 18.2516 28.8788 18.8761 28.7547C19.1853 28.6932 19.4794 28.5714 19.7416 28.3963C20.0037 28.2212 20.2288 27.9961 20.404 27.734C20.7578 27.2046 20.8868 26.5564 20.7627 25.9319C20.6385 25.3074 20.2714 24.7578 19.742 24.404C19.2126 24.0502 18.5644 23.9212 17.9399 24.0453C17.3154 24.1695 16.7658 24.5366 16.412 25.066ZM24.024 34.848C26.154 34.936 28.25 34.38 29.952 33.096C30.0793 32.9719 30.1521 32.8023 30.1543 32.6245C30.1566 32.4467 30.0881 32.2753 29.964 32.148C29.9025 32.085 29.8293 32.0347 29.7484 31.9999C29.6675 31.9652 29.5805 31.9468 29.4925 31.9457C29.3147 31.9434 29.1433 32.0119 29.016 32.136C27.5595 33.1809 25.7899 33.6973 24 33.6C22.2123 33.6799 20.451 33.1464 19.008 32.088C18.8836 31.9859 18.7258 31.9338 18.5651 31.9417C18.4044 31.9496 18.2524 32.0169 18.1387 32.1307C18.0249 32.2444 17.9576 32.3964 17.9497 32.5571C17.9418 32.7178 17.9939 32.8757 18.096 33C19.7987 34.2832 21.8937 34.9363 24.024 34.848ZM28.186 28.492C28.582 28.756 29.022 28.992 29.496 28.992C29.8215 28.9958 30.1444 28.9333 30.445 28.8083C30.7455 28.6833 31.0175 28.4983 31.2443 28.2648C31.4711 28.0313 31.6479 27.754 31.7641 27.4499C31.8803 27.1458 31.9333 26.8213 31.92 26.496C31.9198 26.0814 31.8123 25.674 31.6079 25.3133C31.4034 24.9527 31.1091 24.6512 30.7534 24.4381C30.3978 24.225 29.9931 24.1077 29.5786 24.0976C29.1642 24.0875 28.7542 24.1849 28.3886 24.3803C28.023 24.5757 27.7142 24.8626 27.4924 25.2128C27.2706 25.563 27.1433 25.9647 27.1229 26.3788C27.1025 26.7928 27.1897 27.2051 27.376 27.5755C27.5623 27.9458 27.8414 28.2616 28.186 28.492Z" fill="white"></path>
  </symbol>
  <symbol fill="none" xmlns="http://www.w3.org/2000/svg" viewBox="0 0 58 48" id="social-telegram">
    <path d="M52.6918 0.423793C52.6918 0.423793 58.0198 -1.65391 57.5741 3.39155C57.4274 5.46926 56.0957 12.7419 55.0589 20.607L51.5069 43.9075C51.5069 43.9075 51.2107 47.321 48.546 47.9148C45.8827 48.5072 41.8864 45.8371 41.1458 45.2433C40.5534 44.7975 30.0455 38.1187 26.3454 34.8547C25.3086 33.9633 24.1237 32.1832 26.4935 30.1055L42.0331 15.264C43.8091 13.4839 45.5851 9.32844 38.1849 14.3739L17.4627 28.4721C17.4627 28.4721 15.0943 29.9574 10.655 28.6216L1.03308 25.6525C1.03308 25.6525 -2.5189 23.4267 3.54965 21.2008C18.3514 14.2258 36.557 7.10262 52.6891 0.423793H52.6918Z" fill="white"></path>
  </symbol>
  <symbol fill="none" xmlns="http://www.w3.org/2000/svg" viewBox="0 0 59 48" id="social-twitter">
    <path d="M59 5.69368C56.8303 6.65583 54.4995 7.30594 52.0492 7.59979C54.5775 6.0858 56.469 3.70296 57.3708 0.895894C54.9954 2.3079 52.3957 3.30179 49.6846 3.83437C47.8615 1.8863 45.4467 0.595093 42.8152 0.161207C40.1837 -0.27268 37.4826 0.175034 35.1314 1.43484C32.7802 2.69464 30.9104 4.69605 29.8122 7.12834C28.7141 9.56063 28.449 12.2877 29.0583 14.8862C24.2452 14.6443 19.5366 13.3924 15.2383 11.2115C10.94 9.0307 7.14787 5.96974 4.10812 2.22731C3.06875 4.0216 2.47111 6.10194 2.47111 8.3175C2.46995 10.312 2.96074 12.276 3.89993 14.0351C4.83912 15.7943 6.19768 17.2943 7.85506 18.402C5.93294 18.3407 4.05322 17.821 2.37237 16.8859V17.0419C2.37217 19.8393 3.33907 22.5506 5.10899 24.7158C6.87892 26.8809 9.34285 28.3666 12.0827 28.9207C10.2996 29.4036 8.43019 29.4747 6.61561 29.1287C7.38864 31.5357 8.89442 33.6405 10.9222 35.1485C12.9499 36.6565 15.3981 37.4921 17.924 37.5385C13.6361 40.9071 8.34067 42.7344 2.88946 42.7263C1.92383 42.7266 0.95902 42.6701 0 42.5573C5.5333 46.1177 11.9745 48.0073 18.5528 48C40.8214 48 52.995 29.5422 52.995 13.534C52.995 13.0139 52.982 12.4886 52.9586 11.9685C55.3266 10.2548 57.3706 8.1326 58.9948 5.70148L59 5.69368Z" fill="white"></path>
  </symbol>
  <symbol fill="none" xmlns="http://www.w3.org/2000/svg" viewBox="0 0 48 48" id="social-facebook">
    <path fill-rule="evenodd" clip-rule="evenodd" d="M0 24.134C0 36.066 8.666 45.988 20 48V30.666H14V24H20V18.666C20 12.666 23.866 9.334 29.334 9.334C31.066 9.334 32.934 9.6 34.666 9.866V16H31.6C28.666 16 28 17.466 28 19.334V24H34.4L33.334 30.666H28V48C39.334 45.988 48 36.068 48 24.134C48 10.86 37.2 0 24 0C10.8 0 0 10.86 0 24.134Z" fill="white"></path>
  </symbol>
  <symbol fill="none" xmlns="http://www.w3.org/2000/svg" viewBox="0 0 48 48" id="social-instagram">
    <path d="M23.994 15.9966C19.587 15.9966 15.9906 19.593 15.9906 24C15.9906 28.407 19.587 32.0034 23.994 32.0034C28.401 32.0034 31.9974 28.407 31.9974 24C31.9974 19.593 28.401 15.9966 23.994 15.9966ZM47.9982 24C47.9982 20.6858 48.0282 17.4015 47.8421 14.0933C47.656 10.2507 46.7794 6.84041 43.9695 4.03051C41.1536 1.2146 37.7493 0.344017 33.9067 0.157891C30.5925 -0.0282345 27.3082 0.00178587 24 0.00178587C20.6858 0.00178587 17.4015 -0.0282345 14.0933 0.157891C10.2507 0.344017 6.84041 1.22061 4.03051 4.03051C1.21461 6.84641 0.344017 10.2507 0.157891 14.0933C-0.0282345 17.4075 0.00178587 20.6918 0.00178587 24C0.00178587 27.3082 -0.0282345 30.5985 0.157891 33.9067C0.344017 37.7493 1.22061 41.1596 4.03051 43.9695C6.84641 46.7854 10.2507 47.656 14.0933 47.8421C17.4075 48.0282 20.6918 47.9982 24 47.9982C27.3142 47.9982 30.5985 48.0282 33.9067 47.8421C37.7493 47.656 41.1596 46.7794 43.9695 43.9695C46.7854 41.1536 47.656 37.7493 47.8421 33.9067C48.0342 30.5985 47.9982 27.3142 47.9982 24ZM23.994 36.3143C17.1794 36.3143 11.6797 30.8146 11.6797 24C11.6797 17.1854 17.1794 11.6857 23.994 11.6857C30.8086 11.6857 36.3083 17.1854 36.3083 24C36.3083 30.8146 30.8086 36.3143 23.994 36.3143ZM36.8127 14.0573C35.2216 14.0573 33.9367 12.7724 33.9367 11.1813C33.9367 9.59026 35.2216 8.3054 36.8127 8.3054C38.4037 8.3054 39.6886 9.59026 39.6886 11.1813C39.6891 11.5591 39.615 11.9333 39.4706 12.2825C39.3263 12.6316 39.1145 12.9488 38.8473 13.216C38.5802 13.4831 38.2629 13.695 37.9138 13.8393C37.5647 13.9837 37.1905 14.0578 36.8127 14.0573Z" fill="white"></path>
  </symbol>
  
  
</svg>